<svg width="24" height="24" viewBox="0 0 24 24" fill="none" xmlns="http://www.w3.org/2000/svg">
<path d="M18.6639 6H5.33611C4.59722 6 4 6.57589 4 7.28571V16.7143C4 17.4241 4.59722 18 5.33611 18H18.6639C19.4028 18 20 17.4241 20 16.7143V7.28571C20 6.57589 19.4028 6 18.6639 6ZM5.50278 7.28571H18.4972C18.5889 7.28571 18.6639 7.35804 18.6639 7.44643V8.57143H5.33611V7.44643C5.33611 7.35804 5.41111 7.28571 5.50278 7.28571ZM18.4972 16.7143H5.50278C5.41111 16.7143 5.33611 16.642 5.33611 16.5536V12H18.6639V16.5536C18.6639 16.642 18.5889 16.7143 18.4972 16.7143ZM9.33333 14.0357V15.1071C9.33333 15.2839 9.18333 15.4286 9 15.4286H7C6.81667 15.4286 6.66667 15.2839 6.66667 15.1071V14.0357C6.66667 13.8589 6.81667 13.7143 7 13.7143H9C9.18333 13.7143 9.33333 13.8589 9.33333 14.0357ZM14.6667 14.0357V15.1071C14.6667 15.2839 14.5167 15.4286 14.3333 15.4286H10.5556C10.3722 15.4286 10.2222 15.2839 10.2222 15.1071V14.0357C10.2222 13.8589 10.3722 13.7143 10.5556 13.7143H14.3333C14.5167 13.7143 14.6667 13.8589 14.6667 14.0357Z" fill="#F57C00"/>
</svg>
