<svg width="120" height="75" viewBox="0 0 120 75" fill="none" xmlns="http://www.w3.org/2000/svg">
<path d="M67.5 54L75 68.9998L84 58.4998L87 74.9998L79.5 70.4998L76.5 74.9998L70.5 70.4998L67.5 74.9998V54Z" fill="#F5F5F0"/>
<path d="M36 53.9998C36 53.9998 51 43.4995 49.5 55.4997C48 67.5 33 74.9998 33 74.9998L36 53.9998Z" fill="#F5F5F0"/>
<path d="M60 1.78814e-06L60 75L55.5 73.5L44.874 75C44.874 75 51 73.5 55.5 67.5C60 61.5 59.5232 38.7442 46.5 42C40.5 43.5 31.5 51 31.5 51L27.9845 75L24.3653 60C24.3653 60 25.9711 47.3317 39.9506 42L38.7354 39.7074C20.5303 45 17.2175 64.5 17.2175 64.5C17.2175 64.5 18.7331 54 20.5303 49.7605C22.3274 45.521 32.3729 37.5 32.3729 37.5H24.7952L12.6709 52.5L17.2175 42L5.09323 46.5L20.5303 36.4281L18.9462 34.5476L11.1554 36C11.1554 36 2.53633 42.327 1.14441e-05 44.2732C4.94378 36.2865 9.56146 29.1327 17.0477 26.3177L20.5303 29.0813C25.8042 32.2338 33.357 32.3562 40.2041 27.5227C43.34 28.8432 46.4526 29.688 49.5369 29.9615L49.7311 19.1012C45.8988 18.7612 41.9354 17.435 37.8659 15.3008C40.5007 14.1028 43.2198 12.4504 45.7339 10.5985C49.0665 8.14357 51.9887 5.45316 53.8128 3C53.8128 3 55.7316 1.78152e-06 58.1445 1.78814e-06C60.5574 1.79476e-06 60 1.78814e-06 60 1.78814e-06Z" fill="#F5F5F0"/>
<path d="M59.6625 0L60 75L62.6628 72L62.6628 39.7074L74.6628 57L85.5431 51L91.5935 75L95.2237 60C95.2237 60 93.6129 47.3317 79.5909 42L80.8099 39.7074C99.0702 45 102.393 64.5 102.393 64.5C102.393 64.5 100.873 54 99.0702 49.7605C97.2675 45.521 87.1916 37.5 87.1916 37.5H94.7923L106.953 52.5L102.393 42L114.554 46.5L99.0702 36.4281L100.659 34.5476L108.473 36C108.473 36 117.119 42.327 119.663 44.2732C114.704 36.2865 110.072 29.1327 102.563 26.3177L99.0702 29.0813C93.7802 32.2338 86.2045 32.3562 79.3367 27.5227C76.1913 28.8432 73.0693 29.688 69.9756 29.9615L69.7807 19.1012C73.6245 18.7612 77.6 17.435 81.6818 15.3008C79.039 14.1028 76.3117 12.4504 73.79 10.5985C70.4472 8.14357 67.5162 5.45316 65.6866 3C65.6866 3 63.762 -6.62254e-09 61.3418 0C58.9216 6.62254e-09 59.6625 0 59.6625 0Z" fill="#F5F5F0"/>
</svg>
