<svg width="24" height="24" viewBox="0 0 24 24" fill="none" xmlns="http://www.w3.org/2000/svg">
<path d="M12 5C9.23571 5 7 7.191 7 9.9C7 13.575 12 19 12 19C12 19 17 13.575 17 9.9C17 7.191 14.7643 5 12 5ZM12 11.65C11.5264 11.65 11.0722 11.4656 10.7373 11.1374C10.4024 10.8092 10.2143 10.3641 10.2143 9.9C10.2143 9.43587 10.4024 8.99075 10.7373 8.66256C11.0722 8.33437 11.5264 8.15 12 8.15C12.4736 8.15 12.9278 8.33437 13.2627 8.66256C13.5976 8.99075 13.7857 9.43587 13.7857 9.9C13.7857 10.3641 13.5976 10.8092 13.2627 11.1374C12.9278 11.4656 12.4736 11.65 12 11.65Z" fill="#F57C00"/>
</svg>
