<svg width="24" height="24" viewBox="0 0 24 24" fill="none" xmlns="http://www.w3.org/2000/svg">
<path d="M8.36359 17.818C8.8458 17.818 9.30827 17.6264 9.64924 17.2855C9.99022 16.9445 10.1818 16.482 10.1818 15.9998C10.1818 15.5176 9.99022 15.0551 9.64924 14.7142C9.30827 14.3732 8.8458 14.1816 8.36359 14.1816C7.88138 14.1816 7.41892 14.3732 7.07794 14.7142C6.73697 15.0551 6.54541 15.5176 6.54541 15.9998C6.54541 16.482 6.73697 16.9445 7.07794 17.2855C7.41892 17.6264 7.88138 17.818 8.36359 17.818ZM17.4545 17.818C17.9367 17.818 18.3992 17.6264 18.7401 17.2855C19.0811 16.9445 19.2727 16.482 19.2727 15.9998C19.2727 15.5176 19.0811 15.0551 18.7401 14.7142C18.3992 14.3732 17.9367 14.1816 17.4545 14.1816C16.9723 14.1816 16.5098 14.3732 16.1689 14.7142C15.8279 15.0551 15.6363 15.5176 15.6363 15.9998C15.6363 16.482 15.8279 16.9445 16.1689 17.2855C16.5098 17.6264 16.9723 17.818 17.4545 17.818Z" stroke="#F57C00" stroke-width="1.5" stroke-miterlimit="1.5" stroke-linecap="round" stroke-linejoin="round"/>
<path d="M10.2273 16H14.7273V6.54545C14.7273 6.40079 14.6698 6.26205 14.5675 6.15976C14.4652 6.05747 14.3265 6 14.1818 6H2M6.22727 16H4.36364C4.29201 16 4.22108 15.9859 4.1549 15.9585C4.08872 15.9311 4.02859 15.8909 3.97794 15.8402C3.92729 15.7896 3.88711 15.7295 3.8597 15.6633C3.83229 15.5971 3.81818 15.5262 3.81818 15.4545V11" stroke="#F57C00" stroke-width="1.5" stroke-linecap="round"/>
<path d="M2.90918 8.72705H6.54554" stroke="#F57C00" stroke-width="1.5" stroke-linecap="round" stroke-linejoin="round"/>
<path d="M14.7273 8.72705H19.8273C19.9327 8.72708 20.0359 8.75766 20.1243 8.8151C20.2127 8.87253 20.2826 8.95437 20.3255 9.05069L21.9527 12.7125C21.9838 12.782 21.9999 12.8573 22 12.9334V15.4543C22 15.526 21.9859 15.5969 21.9585 15.6631C21.9311 15.7292 21.8909 15.7894 21.8403 15.84C21.7896 15.8907 21.7295 15.9308 21.6633 15.9583C21.5971 15.9857 21.5262 15.9998 21.4546 15.9998H19.7273M14.7273 15.9998H15.6364" stroke="#F57C00" stroke-width="1.5" stroke-linecap="round"/>
</svg>
